<svg width="784" height="637" viewBox="0 0 784 637" fill="none" xmlns="http://www.w3.org/2000/svg">
<path d="M124 321.528C124 321.528 109 294.028 374.5 296.028C640 298.028 630.5 321.528 630.5 321.528" stroke="#F3F4F6" stroke-width="10"/>
<path d="M596.7 164.425L639.099 82.2868C677.448 55.3809 730.665 91.0511 727.515 127.926L685.116 210.064C620.546 283.545 596.509 337.049 561.002 450.504L525.798 518.704L437.383 473.064L472.587 404.865C538.975 308.1 566.707 255.078 596.7 164.425Z" fill="#34493E" stroke="#34493E" stroke-width="5"/>
<path d="M388.879 539.685L333.79 351.946C305.843 264.503 269.427 229.169 158.001 196.82" stroke="#6A9889" stroke-width="5"/>
<path d="M160.28 142.445C172.046 160.206 186.302 181.729 161.218 198.345C136.134 214.961 121.002 191.93 108.592 176.685C103.738 162.138 101.798 122.459 107.098 116.644C107.098 116.644 148.515 124.684 160.28 142.445Z" fill="#88A7AF" stroke="#F3F4F6" stroke-width="2"/>
<path d="M111.87 161.88C132.752 157.656 158.055 152.539 164.02 182.03C169.984 211.521 142.953 216.883 124.16 222.649C108.856 221.677 71.3591 208.554 67.9643 201.457C67.9643 201.457 90.9886 166.103 111.87 161.88Z" fill="#88A7AF" stroke="#F3F4F6" stroke-width="2"/>
<path d="M378.319 580.023C123.639 581.368 122 322.028 122 322.028H633C633 322.028 633 578.677 378.319 580.023Z" fill="#F3F4F6" stroke="#F3F4F6" stroke-width="5"/>
<path d="M349.66 227.033C378.643 214.206 417.766 212.832 417.766 212.832C417.766 212.832 396.977 241.717 370.04 262.031C343.104 282.345 303.264 279.508 303.264 279.508C303.264 279.508 320.678 239.859 349.66 227.033Z" stroke="#6A9889" stroke-width="3"/>
<path d="M320.538 268.433C320.538 268.433 331.165 255.88 354.568 243.409C377.972 230.938 404.793 219.369 404.793 219.369" stroke="#6A9889" stroke-width="3"/>
<path d="M140.206 149.591C158.656 160.243 181.013 173.15 165.969 199.208C150.926 225.265 127.111 211.398 109.206 203.285C98.3754 192.428 78.9467 157.777 81.0983 150.209C81.0983 150.209 121.755 138.939 140.206 149.591Z" fill="#88A7AF" stroke="#F3F4F6" stroke-width="2"/>
</svg>
